<svg version="1.0" xmlns="http://www.w3.org/2000/svg" width="700pt" height="700pt" viewBox="0 0 700 700"><g transform="translate(0.000000,700.000000) scale(0.100000,-0.100000)" fill="#000" stroke="none"><path d="M1053 6985c-174-31-335-150-412-302-53-106-51-44-51-1598 0-1576-3-1496 58-1609 37-69 133-169 202-211 68-42 122-62 210-80 57-12-2-13-497-14l-563-1v-270-270h655 655V1515c0-787 3-1130 11-1167 33-154 143-276 297-327 61-21 65-21 1882-21s1821 0 1882 21c115 38 206 115 257 216 52 104 51 72 51 1275v1118h655 655v270 270l-562 1c-496 1-555 2-498 14 36 7 85 21 109 29 162 59 302 213 346 383 23 88 22 29e2.0 2988-53 2e2-234 361-450 4e2-114 20-4780 20-4892 0zm1967-857c0-183-3-343-6-355l-6-23h-414-414v-115-115h410 410l-6-57c-60-584-215-972-499-1257-103-103-239-203-368-272l-88-46 75-78c42-43 76-80 76-84 0-3-232-6-515-6h-515v1363c0 750 3 1367 7 1370 3 4 422 7 930 7h923v-332zm2818-1040 2-1368H4050c-984 0-1790 2-1790 4s35 24 78 49c379 220 651 585 785 1053 49 170 117 563 117 677 0 16 24 17 355 17h355v-747c0-467 4-772 10-812 19-112 64-171 155-202 57-20 573-20 629 0 54 19 110 73 134 129 26 60 49 174 57 277 3 44 8 96 10 116l5 36-73 27c-41 15-90 38-109 51l-36 24-6-107c-10-168-24-273-41-299-27-40-58-45-263-41-190 3-194 3-213 27-18 22-19 52-19 887v864h-467-466l6 152c4 83 7 243 7 355v203l1283-2 1282-3 3-1367zM24e2 2185v-215h-215-215v215 215h215 215v-215zm660 0v-215h-215-215v215 215h215 215v-215zm660 0v-215h-220-220v215 215h220 220v-215zm650 0v-215h-215-215v215 215h215 215v-215zm660 0v-215h-215-215v215 215h215 215v-215zm-2630-655v-220h-215-215v220 220h215 215v-220zm660 0v-220h-215-215v220 220h215 215v-220zm658 3-3-218h-215-215l-3 218-2 217h220 220l-2-217zm652-3v-220h-215-215v220 220h215 215v-220zm660 0v-220h-215-215v220 220h215 215v-220zm-660-875V440h-870-870v215 215h870 870V655z"/></g></svg>