<?xml version="1.0" standalone="no"?>
<!DOCTYPE svg PUBLIC "-//W3C//DTD SVG 20010904//EN"
 "http://www.w3.org/TR/2001/REC-SVG-20010904/DTD/svg10.dtd">
<svg version="1.0" xmlns="http://www.w3.org/2000/svg"
 width="700.000000pt" height="700.000000pt" viewBox="0 0 700.000000 700.000000"
 preserveAspectRatio="xMidYMid meet">
<metadata>
Created by potrace 1.14, written by Peter Selinger 2001-2017
</metadata>
<g transform="translate(0.000000,700.000000) scale(0.100000,-0.100000)"
fill="#000000" stroke="none">
<path d="M1053 6985 c-174 -31 -335 -150 -412 -302 -53 -106 -51 -44 -51
-1598 0 -1576 -3 -1496 58 -1609 37 -69 133 -169 202 -211 68 -42 122 -62 210
-80 57 -12 -2 -13 -497 -14 l-563 -1 0 -270 0 -270 655 0 655 0 0 -1115 c0
-787 3 -1130 11 -1167 33 -154 143 -276 297 -327 61 -21 65 -21 1882 -21 1817
0 1821 0 1882 21 115 38 206 115 257 216 52 104 51 72 51 1275 l0 1118 655 0
655 0 0 270 0 270 -562 1 c-496 1 -555 2 -498 14 36 7 85 21 109 29 162 59
302 213 346 383 23 88 22 2900 0 2988 -53 200 -234 361 -450 400 -114 20
-4780 20 -4892 0z m1967 -857 c0 -183 -3 -343 -6 -355 l-6 -23 -414 0 -414 0
0 -115 0 -115 410 0 410 0 -6 -57 c-60 -584 -215 -972 -499 -1257 -103 -103
-239 -203 -368 -272 l-88 -46 75 -78 c42 -43 76 -80 76 -84 0 -3 -232 -6 -515
-6 l-515 0 0 1363 c0 750 3 1367 7 1370 3 4 422 7 930 7 l923 0 0 -332z m2818
-1040 l2 -1368 -1790 0 c-984 0 -1790 2 -1790 4 0 2 35 24 78 49 379 220 651
585 785 1053 49 170 117 563 117 677 0 16 24 17 355 17 l355 0 0 -747 c0 -467
4 -772 10 -812 19 -112 64 -171 155 -202 57 -20 573 -20 629 0 54 19 110 73
134 129 26 60 49 174 57 277 3 44 8 96 10 116 l5 36 -73 27 c-41 15 -90 38
-109 51 l-36 24 -6 -107 c-10 -168 -24 -273 -41 -299 -27 -40 -58 -45 -263
-41 -190 3 -194 3 -213 27 -18 22 -19 52 -19 887 l0 864 -467 0 -466 0 6 152
c4 83 7 243 7 355 l0 203 1283 -2 1282 -3 3 -1367z m-3438 -2903 l0 -215 -215
0 -215 0 0 215 0 215 215 0 215 0 0 -215z m660 0 l0 -215 -215 0 -215 0 0 215
0 215 215 0 215 0 0 -215z m660 0 l0 -215 -220 0 -220 0 0 215 0 215 220 0
220 0 0 -215z m650 0 l0 -215 -215 0 -215 0 0 215 0 215 215 0 215 0 0 -215z
m660 0 l0 -215 -215 0 -215 0 0 215 0 215 215 0 215 0 0 -215z m-2630 -655 l0
-220 -215 0 -215 0 0 220 0 220 215 0 215 0 0 -220z m660 0 l0 -220 -215 0
-215 0 0 220 0 220 215 0 215 0 0 -220z m658 3 l-3 -218 -215 0 -215 0 -3 218
-2 217 220 0 220 0 -2 -217z m652 -3 l0 -220 -215 0 -215 0 0 220 0 220 215 0
215 0 0 -220z m660 0 l0 -220 -215 0 -215 0 0 220 0 220 215 0 215 0 0 -220z
m-660 -875 l0 -215 -870 0 -870 0 0 215 0 215 870 0 870 0 0 -215z"/>
</g>
</svg>
